<svg width="548" height="503" viewBox="0 0 548 503" fill="none" xmlns="http://www.w3.org/2000/svg">
<rect x="346.815" y="187.758" width="72.2748" height="72.2748" rx="2" transform="rotate(16.2899 346.815 187.758)" stroke="white" stroke-opacity="0.3" stroke-width="2"/>
<rect x="435.741" y="211.193" width="72.2748" height="72.2748" rx="2" transform="rotate(16.2899 435.741 211.193)" stroke="white" stroke-opacity="0.3" stroke-width="2"/>
<rect x="413.134" y="147.455" width="37.1374" height="37.1374" rx="2" transform="rotate(16.2899 413.134 147.455)" stroke="white" stroke-opacity="0.3" stroke-width="2"/>
<rect x="244.916" y="57.7494" width="72.2748" height="72.2748" rx="2" transform="rotate(16.2899 244.916 57.7494)" stroke="white" stroke-opacity="0.3" stroke-width="2"/>
<rect x="157.005" y="145.99" width="72.2748" height="72.2748" rx="2" transform="rotate(16.2899 157.005 145.99)" stroke="white" stroke-opacity="0.3" stroke-width="2"/>
<rect x="333.842" y="81.1838" width="72.2748" height="72.2748" rx="2" transform="rotate(16.2899 333.842 81.1838)" stroke="white" stroke-opacity="0.3" stroke-width="2"/>
<rect x="245.059" y="145.837" width="72.2748" height="72.2748" rx="2" transform="rotate(16.2899 245.059 145.837)" stroke="white" stroke-opacity="0.3" stroke-width="2"/>
<rect x="53.0308" y="182.907" width="72.2748" height="72.2748" rx="2" transform="rotate(16.2899 53.0308 182.907)" stroke="white" stroke-opacity="0.3" stroke-width="2"/>
<rect x="106.74" y="141.471" width="37.1374" height="37.1374" rx="2" transform="rotate(16.2899 106.74 141.471)" stroke="white" stroke-opacity="0.3" stroke-width="2"/>
<rect x="311.236" y="17.4469" width="37.1374" height="37.1374" rx="2" transform="rotate(16.2899 311.236 17.4469)" stroke="white" stroke-opacity="0.3" stroke-width="2"/>
</svg>
