
        <svg xmlns="http://www.w3.org/2000/svg" xmlns:xlink="http://www.w3.org/1999/xlink" version="1.1" width="3162.0162016201625" 
        height="1055.2081173822164" viewBox="0 0 3162.0162016201625 1055.2081173822164">
			
			<g transform="scale(8.1008100810081) translate(10, 10)">
				<defs id="SvgjsDefs4335"></defs><g id="SvgjsG4336" featureKey="YvLwfh-0" transform="matrix(1.3542359740952539,0,0,1.3542359740952539,4.6586832294834455,-12.184236565676082)" fill="#111111"><path xmlns="http://www.w3.org/2000/svg" d="M72.5,59.6c0.8,1.7,1.6,3.4,2.3,5.2c1.5,3.5,2.7,7.1,3.3,10.9c0.4,2.3,0.5,4.6-0.2,6.9c-0.7,2.4-2.5,3.7-5,3.7  c-2.3,0-4.3-0.8-6.3-1.8c-1.7-0.9-3.4-2-5.1-3.1c-0.7-0.5-1.3-0.6-2.2-0.3c-2.7,1-5.7-1.7-5.3-4.5c0.2-1.2,0.1-1.4-1-2.2  c-0.1,0.2-0.3,0.4-0.4,0.6c-2.4,3.5-5,6.9-8,9.9c-1.9,1.8-3.9,3.6-6.3,4.7c-1.2,0.5-2.4,0.9-3.7,0.8c-2-0.1-3.3-1.3-4.1-2.9  c-0.9-1.7-1.2-3.6-1.4-5.5c-0.4-5.3,0.4-10.4,1.6-15.5c0.1-0.4,0.2-0.8,0.3-1.3c-0.2,0-0.4-0.1-0.6-0.1c-4.7-0.2-9.4-0.8-14-2.1  c-2.1-0.6-4.1-1.4-5.9-2.7c-0.5-0.4-1-0.8-1.4-1.2c-1.7-1.9-1.9-4-0.7-6.2c1.1-1.9,2.7-3.3,4.5-4.5c1.7-1.1,3.5-2.1,5.3-3.1  c0.4-0.2,0.5-0.4,0.6-0.9c0.1-1.7,0.9-2.9,2.5-3.6c1.6-0.7,3.1-0.5,4.4,0.6c0.5,0.4,0.9,0.5,1.5,0.3c0.3-0.2,0.7-0.3,1.1-0.3  c0.4-0.1,0.5-0.3,0.3-0.7c-1.6-3.2-3-6.5-4.1-10c-0.9-2.8-1.6-5.7-1.7-8.7c0-1.3,0.1-2.6,0.5-3.8c0.8-2.7,3.1-4.1,6-3.7  c3,0.4,5.6,1.8,8.2,3.3c3.7,2.3,6.9,5.1,10.1,8c0.2,0.2,0.4,0.4,0.6,0.6c0.9-1.2,1.7-2.4,2.6-3.6c2.3-3.1,4.8-6,7.7-8.5  c1.7-1.4,3.4-2.7,5.5-3.4c0.9-0.3,1.8-0.5,2.7-0.4c2.6,0.1,3.9,1.9,4.7,4.1c0.7,2,0.9,4,0.9,6.1c0,1.6-0.1,3.2-0.2,4.7  c0,0.2,0.2,0.5,0.4,0.6c1,0.6,1.6,1.5,1.9,2.6c0.6,2.2-0.8,4.5-3,5.1c-0.5,0.1-0.8,0.3-0.8,0.8c0,0.2-0.1,0.4-0.2,0.6  c-0.2,0.6-0.1,0.6,0.5,0.6c4,0.2,7.9,0.6,11.8,1.5c2.7,0.6,5.3,1.5,7.7,3c1.3,0.8,2.4,1.8,3,3.2c0.6,1.5,0.5,2.9-0.3,4.3  c-1,1.8-2.4,3.2-4,4.4c-3.2,2.4-6.8,4.1-10.6,5.5C76.5,58.2,74.5,58.9,72.5,59.6z M24.6,20.3c0.1,1.7,0.4,3.3,0.9,4.9  c1.4,5,3.6,9.7,6,14.4c0.2,0.4,0.5,0.4,0.9,0.3c2.8-0.7,5.7-1.3,8.5-2c0.3-0.1,0.6-0.3,0.7-0.6c1.5-2.7,3-5.4,4.6-8.1  c0.2-0.4,0.2-0.6-0.1-0.9c-2-1.9-3.9-3.8-5.9-5.6c-2.4-2.1-4.8-4-7.7-5.5c-1.4-0.7-2.7-1.3-4.3-1.4c-1.5-0.1-2.6,0.6-3.1,1.9  C24.8,18.6,24.7,19.4,24.6,20.3z M71.1,38.5c-0.3,0-0.8,0-1.2,0c-0.4,0-0.5,0.2-0.7,0.5c-1,3-1.9,6-2.9,9c-0.1,0.4-0.1,0.7,0.1,1.1  c1.4,2.4,2.9,4.8,4.3,7.2c0.3,0.5,0.5,0.6,1,0.4c3-1,6-1.9,9-3c3-1.1,5.9-2.5,8.5-4.4c1-0.7,1.8-1.5,2.5-2.5  c0.8-1.4,0.7-2.7-0.4-3.8c-0.2-0.2-0.5-0.4-0.7-0.6c-1.3-0.9-2.8-1.5-4.3-1.9C81.2,39,76.2,38.7,71.1,38.5z M31.3,81.7  c0,0.6,0.1,1.6,0.2,2.7c0.2,1.1,0.5,2.2,1.2,3.1c0.7,0.9,1.6,1.2,2.6,1.1c1.3-0.1,2.4-0.8,3.4-1.5c2.1-1.5,3.9-3.5,5.5-5.4  c2.4-2.9,4.5-6,6.6-9.2c0.2-0.3,0.2-0.5,0-0.7c-2-2.3-4.1-4.6-6.1-6.8c-0.2-0.2-0.5-0.3-0.7-0.3c-3.1,0.1-6.1,0.2-9.2,0.3  c-0.5,0-0.8,0.1-0.9,0.6c-0.4,1.6-0.8,3.2-1.2,4.8C31.9,74,31.4,77.6,31.3,81.7z M76.6,80.4c-0.1-2-0.4-3.7-0.9-5.4  c-1.4-5-3.6-9.7-6-14.2c-0.2-0.3-0.4-0.3-0.7-0.3c-2.9,0.7-5.8,1.3-8.7,2c-0.2,0.1-0.5,0.2-0.6,0.4c-1.6,2.8-3.1,5.6-4.7,8.3  c-0.2,0.3-0.1,0.5,0.1,0.7c0.3,0.3,0.6,0.6,0.9,0.9c0.2,0.3,0.5,0.3,0.8,0.2c0.5-0.2,1-0.3,1.5-0.4c2.2-0.2,5,2.2,4.1,5.2  c-0.2,0.6,0,1,0.4,1.3c1.3,0.9,2.5,1.8,3.7,2.7c1.7,1.2,3.6,2.1,5.6,2.6c2.2,0.5,3.8-0.5,4.2-2.7C76.6,81.2,76.6,80.7,76.6,80.4z   M29.9,61.9c0.5,0,1.1,0,1.6,0c0.3,0,0.5-0.1,0.5-0.4c1-3.1,2-6.2,3-9.3c0.1-0.2,0-0.5-0.1-0.7c-1.5-2.6-3-5.1-4.5-7.7  c-0.2-0.3-0.3-0.3-0.6-0.3c-0.6,0.2-1.2,0.3-1.8,0.5c-0.5,0.1-0.9,0.4-0.9,1c-0.1,1-0.6,1.8-1.3,2.4c-1.7,1.4-3.9,1.4-5.6-0.1  c-0.2-0.2-0.4-0.4-0.8-0.2c-2.5,1.1-4.9,2.2-7.1,3.8c-1.1,0.8-2,1.6-2.7,2.8c-0.8,1.4-0.6,2.7,0.5,3.8c0.5,0.5,1.1,0.9,1.6,1.2  c1.6,0.9,3.4,1.4,5.3,1.8C21.3,61.5,25.6,61.7,29.9,61.9z M64.1,35.4C64.1,35.5,64.1,35.5,64.1,35.4c0.9,0.1,1.7,0,2.5,0.1  c0.3,0,0.5-0.1,0.5-0.4c0.1-0.6,0.3-1.1,0.5-1.7c0.1-0.4,0-0.6-0.3-0.9c-2.5-2-1.7-6.2,1.5-7.1c0.4-0.1,0.5-0.3,0.6-0.7  c0.3-2.7,0.6-5.4,0.3-8.1c-0.1-1.3-0.4-2.5-1.1-3.6c-0.7-1-1.7-1.5-2.9-1.3c-1,0.2-1.9,0.6-2.7,1.2c-1.7,1.1-3.1,2.5-4.4,3.9  c-3.2,3.4-5.8,7.2-8.3,11.1c-0.2,0.3-0.1,0.5,0.1,0.8c1.9,2.1,3.7,4.1,5.5,6.2c0.5,0.6,1,0.9,1.8,0.8C59.9,35.6,62,35.5,64.1,35.4z   M46.1,61.3c1.3-0.2,2.6-0.3,3.8-0.4c2.5-0.3,5-0.7,7.5-1c0.4,0,0.6-0.2,0.7-0.5c1.5-3.3,2.9-6.6,4.4-10c0.1-0.2,0-0.6-0.1-0.8  c-0.5-0.8-1-1.6-1.6-2.3c-1.5-2-3-4.1-4.4-6.1c-0.5-0.8-1.2-1.1-2.2-1c-1.7,0.2-3.5,0.4-5.2,0.6c-1.6,0.2-3.1,0.5-4.7,0.7  c-0.4,0.1-0.7,0.1-0.9,0.5c-1.5,3.3-3,6.7-4.4,10c-0.1,0.2-0.1,0.6,0.1,0.7c2.2,3.1,4.5,6.1,6.7,9.2C45.7,61.2,46,61.3,46.1,61.3z   M37.3,55.1c-0.8,2.3-1.5,4.5-2.3,6.9c2.4-0.1,4.7-0.2,7.1-0.3C40.4,59.4,38.9,57.3,37.3,55.1z M64,45.3c0.8-2.3,1.5-4.5,2.3-6.8  c-2.4,0.1-4.7,0.2-7.1,0.3C60.8,41,62.4,43.1,64,45.3z M52.7,69.4c1.1-2.1,2.2-4.1,3.4-6.1c-2.7,0.4-5.2,0.7-7.8,1  C49.7,66,51.2,67.7,52.7,69.4z M48.5,31c-1.1,2.1-2.2,4.1-3.4,6.1c2.7-0.3,5.2-0.7,7.8-1C51.5,34.4,50.1,32.7,48.5,31z M39.5,41.4  c-0.1,0-0.2,0-0.3,0c-1.8,0.4-3.6,0.8-5.4,1.2c-0.4,0.1-0.5,0.2-0.3,0.6c0.9,1.5,1.9,3.1,2.8,4.6c0.1,0.1,0.2,0.2,0.3,0.3  C37.6,45.9,38.5,43.7,39.5,41.4z M64.7,52.2c-1,2.3-2,4.6-3,6.9c2.1-0.5,4.2-0.9,6.3-1.4C66.9,55.8,65.8,54,64.7,52.2z"></path><path xmlns="http://www.w3.org/2000/svg" d="M43.7,50.2c0-3.8,3.1-6.9,6.9-6.9c3.9,0,7,3.1,7,7c0,3.9-3,6.9-6.9,6.9C46.4,57.2,43.7,53.9,43.7,50.2z"></path></g><g id="SvgjsG4337" featureKey="JZW510-0" transform="matrix(2.1367521964668823,0,0,2.1367521964668823,135.37606682273855,14.50427293847629)" fill="#111111"><path d="M7.78 5.380000000000001 c1.6667 0 3.0666 0.47 4.2 1.41 s1.7867 2.1834 1.96 3.73 l-3.04 0 c-0.10666 -0.70666 -0.46 -1.3 -1.06 -1.78 s-1.2867 -0.72 -2.06 -0.72 c-1.2267 0 -2.18 0.44 -2.86 1.32 s-1.02 2.0734 -1.02 3.58 c0 1.4667 0.34334 2.63 1.03 3.49 s1.6367 1.29 2.85 1.29 c0.90666 0 1.64 -0.27666 2.2 -0.83 s0.90666 -1.3433 1.04 -2.37 l3.04 0 c-0.16 1.8133 -0.81 3.24 -1.95 4.28 s-2.5834 1.56 -4.33 1.56 c-2.0934 0 -3.7866 -0.69 -5.08 -2.07 s-1.94 -3.1634 -1.94 -5.35 c0 -2.2134 0.64 -4.0234 1.92 -5.43 s2.98 -2.11 5.1 -2.11 z M20.92 9.38 c1.6533 0 2.96 0.50334 3.92 1.51 s1.44 2.3234 1.44 3.95 c0 1.64 -0.49 2.9566 -1.47 3.95 s-2.2766 1.49 -3.89 1.49 c-1.64 0 -2.94 -0.50334 -3.9 -1.51 s-1.44 -2.3166 -1.44 -3.93 c0 -1.6667 0.49 -2.9934 1.47 -3.98 s2.27 -1.48 3.87 -1.48 z M18.42 14.84 c0 1.0533 0.21334 1.8666 0.64 2.44 s1.0467 0.86 1.86 0.86 c0.84 0 1.47 -0.29334 1.89 -0.88 s0.63 -1.3933 0.63 -2.42 c0 -1.0667 -0.21666 -1.8867 -0.65 -2.46 s-1.0633 -0.86 -1.89 -0.86 c-0.8 0 -1.4133 0.28666 -1.84 0.86 s-0.64 1.3933 -0.64 2.46 z M31.04 5.720000000000001 l0 2.34 l-2.84 0 l0 -2.34 l2.84 0 z M31.04 9.66 l0 10.34 l-2.84 0 l0 -10.34 l2.84 0 z M39.22 9.38 c1.32 0 2.2766 0.33338 2.87 1 s0.89 1.7267 0.89 3.18 l0 6.44 l-2.84 0 l0 -5.86 c0 -0.85334 -0.13666 -1.4867 -0.41 -1.9 s-0.74334 -0.62 -1.41 -0.62 c-0.77334 0 -1.3333 0.23334 -1.68 0.7 s-0.52 1.2333 -0.52 2.3 l0 5.38 l-2.84 0 l0 -10.34 l2.7 0 l0 1.44 l0.06 0 c0.70666 -1.1467 1.7667 -1.72 3.18 -1.72 z M55.42 5.720000000000001 l3.34 9.82 l0.04 0 l3.16 -9.82 l4.42 0 l0 14.28 l-2.94 0 l0 -10.12 l-0.04 0 l-3.5 10.12 l-2.42 0 l-3.5 -10.02 l-0.04 0 l0 10.02 l-2.94 0 l0 -14.28 l4.42 0 z M73.60000000000001 9.38 c3.0134 0.01334 4.52 0.9933 4.52 2.94 l0 5.48 c0 1.0133 0.12 1.7467 0.36 2.2 l-2.88 0 c-0.10666 -0.32 -0.17332 -0.65334 -0.19998 -1 c-0.84 0.85334 -2 1.28 -3.48 1.28 c-1.08 0 -1.9367 -0.27334 -2.57 -0.82 s-0.95 -1.3067 -0.95 -2.28 c0 -0.94666 0.3 -1.68 0.9 -2.2 c0.61334 -0.54666 1.7267 -0.89332 3.34 -1.04 c1.1467 -0.12 1.8733 -0.27 2.18 -0.45 s0.46 -0.45666 0.46 -0.83 c0 -0.46666 -0.14 -0.81332 -0.42 -1.04 s-0.74666 -0.34 -1.4 -0.34 c-0.6 0 -1.0533 0.12334 -1.36 0.37 s-0.48666 0.64332 -0.54 1.19 l-2.84 0 c0.06666 -1.1333 0.53332 -1.9933 1.4 -2.58 s2.0266 -0.88 3.48 -0.88 z M71.24000000000001 17.06 c0 0.88 0.58 1.32 1.74 1.32 c1.52 -0.01334 2.2866 -0.79334 2.3 -2.34 l0 -1.1 c-0.22666 0.22666 -0.8 0.39332 -1.72 0.49998 c-0.8 0.09334 -1.3867 0.25668 -1.76 0.49002 s-0.56 0.61 -0.56 1.13 z M83.92000000000002 6.5600000000000005 l0.000019531 3.1 l2.08 0 l0 1.9 l-2.08 0 l0 5.12 c0 0.48 0.08 0.8 0.24 0.96 s0.48 0.24 0.96 0.24 c0.34666 0 0.64 -0.02666 0.88 -0.08 l0 2.22 c-0.4 0.06666 -0.96 0.1 -1.68 0.1 c-1.0933 0 -1.9067 -0.18666 -2.44 -0.56 s-0.8 -1.02 -0.8 -1.94 l0 -6.06 l-1.72 0 l0 -1.9 l1.72 0 l0 -3.1 l2.84 0 z M93.40000000000002 9.38 c0.24 0 0.44668 0.03334 0.62002 0.1 l0 2.64 c-0.30666 -0.06666 -0.64666 -0.1 -1.02 -0.1 c-1.8667 0 -2.8 1.1067 -2.8 3.32 l0 4.66 l-2.84 0 l0 -10.34 l2.7 0 l0 1.92 l0.04 0 c0.28 -0.66666 0.72334 -1.2 1.33 -1.6 s1.2633 -0.6 1.97 -0.6 z M98.06000000000002 5.720000000000001 l0 2.34 l-2.84 0 l0 -2.34 l2.84 0 z M98.06000000000002 9.66 l0 10.34 l-2.84 0 l0 -10.34 l2.84 0 z M102.78000000000002 9.66 l1.82 2.7 l1.8 -2.7 l3.14 0 l-3.4 4.84 l3.82 5.5 l-3.24 0 l-2.16 -3.26 l-2.16 3.26 l-3.18 0 l3.72 -5.44 l-3.4 -4.9 l3.24 0 z"></path></g><g id="SvgjsG4338" featureKey="zdvuGz-0" transform="matrix(1.076630151755492,0,0,1.076630151755492,158.60038111074422,68.6478825153444)" fill="#111111"><path d="M1.3 6.300000000000001 c0 -0.2 0.1 -0.3 0.3 -0.3 l1.16 0 c0.2 0 0.3 0.1 0.3 0.3 l0 13.4 c0 0.2 -0.1 0.3 -0.3 0.3 l-1.16 0 c-0.2 0 -0.3 -0.1 -0.3 -0.3 l0 -13.4 z M22.524499999999996 6 c0.2 0 0.3 0.1 0.3 0.3 l0 13.4 c0 0.2 -0.1 0.3 -0.3 0.3 l-1.76 0 c-0.16 0 -0.28 -0.06 -0.36 -0.22 l-5.2 -11.24 l0 11.16 c0 0.2 -0.1 0.3 -0.3 0.3 l-1.14 0 c-0.2 0 -0.3 -0.1 -0.3 -0.3 l0 -13.4 c0 -0.2 0.1 -0.3 0.3 -0.3 l1.76 0 c0.16 0 0.28 0.06 0.36 0.22 l5.2 11.22 l0 -11.14 c0 -0.2 0.1 -0.3 0.3 -0.3 l1.14 0 z M32.509 6.34 c-0.06 -0.22 0.04 -0.34 0.24 -0.34 l1.12 0 c0.2 0 0.32 0.12 0.38 0.34 l3.4 11.54 l3.42 -11.54 c0.06 -0.22 0.16 -0.34 0.36 -0.34 l1.12 0 c0.2 0 0.32 0.12 0.26 0.34 l-4.06 13.34 c-0.06 0.2 -0.2 0.32 -0.38 0.32 l-1.44 0 c-0.18 0 -0.32 -0.12 -0.38 -0.32 z M60.23350000000001 7.58 l-6.02 0 l0 4.76 l4.6 0 c0.2 0 0.3 0.1 0.3 0.3 l0 0.98 c0 0.2 -0.1 0.3 -0.3 0.3 l-4.6 0 l0 4.5 l6.12 0 c0.2 0 0.3 0.1 0.3 0.3 l0 0.98 c0 0.2 -0.1 0.3 -0.3 0.3 l-7.56 0 c-0.2 0 -0.3 -0.1 -0.3 -0.3 l0 -13.4 c0 -0.2 0.1 -0.3 0.3 -0.3 l7.46 0 c0.2 0 0.3 0.1 0.3 0.3 l0 0.98 c0 0.2 -0.1 0.3 -0.3 0.3 z M74.918 11.94 c2.2 0.48 4.44 1.2 4.44 4.06 c0 2.66 -1.38 4.1 -4.02 4.1 l-1.48 0 c-2.52 0 -3.9 -1.36 -4.02 -3.82 c0 -0.22 0.12 -0.34 0.34 -0.34 l1.04 0 c0.22 0 0.36 0.12 0.36 0.34 c0.08 1.58 0.76 2.24 2.28 2.24 l1.48 0 c1.62 0 2.28 -0.68 2.28 -2.52 s-1.24 -2.1 -2.74 -2.46 l-0.88 -0.2 c-2.36 -0.52 -4 -1.26 -4 -3.8 c0 -2.48 1.42 -3.64 4.04 -3.64 l0.98 0 c2.48 0 3.8 1.36 3.92 3.76 c0.02 0.22 -0.12 0.34 -0.34 0.34 l-1.04 0 c-0.2 0 -0.34 -0.12 -0.36 -0.34 c-0.08 -1.54 -0.72 -2.18 -2.18 -2.18 l-0.98 0 c-1.6 0 -2.3 0.38 -2.3 2.06 c0 1.62 0.72 1.84 2.3 2.2 z M96.42250000000001 6 c0.2 0 0.3 0.1 0.3 0.3 l0 0.98 c0 0.2 -0.1 0.3 -0.3 0.3 l-3.16 0 l0 12.12 c0 0.2 -0.1 0.3 -0.3 0.3 l-1.14 0 c-0.2 0 -0.3 -0.1 -0.3 -0.3 l0 -12.12 l-3.18 0 c-0.2 0 -0.3 -0.1 -0.3 -0.3 l0 -0.98 c0 -0.2 0.1 -0.3 0.3 -0.3 l4.62 0 l3.46 0 z M118.167 6 c0.2 0 0.3 0.1 0.3 0.3 l0 13.4 c0 0.2 -0.1 0.3 -0.3 0.3 l-1.14 0 c-0.2 0 -0.3 -0.1 -0.3 -0.3 l0 -11.18 l-3.32 11.18 c-0.06 0.2 -0.2 0.3 -0.38 0.3 l-1.06 0 c-0.18 0 -0.32 -0.1 -0.38 -0.3 l-3.32 -11.18 l0 11.18 c0 0.2 -0.1 0.3 -0.3 0.3 l-1.14 0 c-0.2 0 -0.3 -0.1 -0.3 -0.3 l0 -13.4 c0 -0.2 0.1 -0.3 0.3 -0.3 l1.98 0 c0.2 0 0.34 0.1 0.4 0.3 l3.28 10.76 l3.32 -10.76 c0.06 -0.2 0.2 -0.3 0.4 -0.3 l1.96 0 z M136.6315 7.58 l-6.02 0 l0 4.76 l4.6 0 c0.2 0 0.3 0.1 0.3 0.3 l0 0.98 c0 0.2 -0.1 0.3 -0.3 0.3 l-4.6 0 l0 4.5 l6.12 0 c0.2 0 0.3 0.1 0.3 0.3 l0 0.98 c0 0.2 -0.1 0.3 -0.3 0.3 l-7.56 0 c-0.2 0 -0.3 -0.1 -0.3 -0.3 l0 -13.4 c0 -0.2 0.1 -0.3 0.3 -0.3 l7.46 0 c0.2 0 0.3 0.1 0.3 0.3 l0 0.98 c0 0.2 -0.1 0.3 -0.3 0.3 z M155.89600000000002 6 c0.2 0 0.3 0.1 0.3 0.3 l0 13.4 c0 0.2 -0.1 0.3 -0.3 0.3 l-1.76 0 c-0.16 0 -0.28 -0.06 -0.36 -0.22 l-5.2 -11.24 l0 11.16 c0 0.2 -0.1 0.3 -0.3 0.3 l-1.14 0 c-0.2 0 -0.3 -0.1 -0.3 -0.3 l0 -13.4 c0 -0.2 0.1 -0.3 0.3 -0.3 l1.76 0 c0.16 0 0.28 0.06 0.36 0.22 l5.2 11.22 l0 -11.14 c0 -0.2 0.1 -0.3 0.3 -0.3 l1.14 0 z M174.3805 6 c0.2 0 0.3 0.1 0.3 0.3 l0 0.98 c0 0.2 -0.1 0.3 -0.3 0.3 l-3.16 0 l0 12.12 c0 0.2 -0.1 0.3 -0.3 0.3 l-1.14 0 c-0.2 0 -0.3 -0.1 -0.3 -0.3 l0 -12.12 l-3.18 0 c-0.2 0 -0.3 -0.1 -0.3 -0.3 l0 -0.98 c0 -0.2 0.1 -0.3 0.3 -0.3 l4.62 0 l3.46 0 z"></path></g>
			</g>
		</svg>
	